<svg width="75" height="51" viewBox="0 0 75 51" fill="none" xmlns="http://www.w3.org/2000/svg">
<path d="M0.48 18L6.096 0.719999H9.708L15.324 18H12.72L7.548 2.232H8.196L3.084 18H0.48ZM3.396 14.1V11.748H12.42V14.1H3.396ZM17.4769 18V0.719999H22.8889C23.0489 0.719999 23.3449 0.724 23.7769 0.732C24.2169 0.739999 24.6369 0.771999 25.0369 0.827999C26.3889 0.995999 27.5249 1.48 28.4449 2.28C29.3729 3.08 30.0729 4.096 30.5449 5.328C31.0169 6.552 31.2529 7.896 31.2529 9.36C31.2529 10.832 31.0169 12.184 30.5449 13.416C30.0729 14.64 29.3729 15.652 28.4449 16.452C27.5249 17.244 26.3889 17.724 25.0369 17.892C24.6369 17.948 24.2169 17.98 23.7769 17.988C23.3449 17.996 23.0489 18 22.8889 18H17.4769ZM20.0449 15.612H22.8889C23.1609 15.612 23.4849 15.604 23.8609 15.588C24.2369 15.572 24.5689 15.54 24.8569 15.492C25.7369 15.324 26.4489 14.944 26.9929 14.352C27.5449 13.752 27.9489 13.016 28.2049 12.144C28.4609 11.272 28.5889 10.344 28.5889 9.36C28.5889 8.344 28.4569 7.404 28.1929 6.54C27.9289 5.668 27.5209 4.94 26.9689 4.356C26.4249 3.764 25.7209 3.388 24.8569 3.228C24.5689 3.172 24.2329 3.14 23.8489 3.132C23.4729 3.116 23.1529 3.108 22.8889 3.108H20.0449V15.612ZM34.0472 18V0.719999H36.3152L42.5792 13.716L48.8072 0.719999H51.0992V17.988H48.7232V6.168L43.1432 18H42.0032L36.4112 6.168V18H34.0472ZM54.7013 18V0.719999H57.2093V18H54.7013ZM60.8128 18V0.719999H63.3568L71.8648 13.56V0.719999H74.4088V18H71.8648L63.3568 5.148V18H60.8128Z" fill="#CC3AFF"/>
<path d="M1.68 51V33.72H8.664C8.832 33.72 9.04 33.728 9.288 33.744C9.536 33.752 9.772 33.776 9.996 33.816C10.956 33.968 11.756 34.296 12.396 34.8C13.044 35.304 13.528 35.94 13.848 36.708C14.168 37.476 14.328 38.324 14.328 39.252C14.328 40.188 14.168 41.04 13.848 41.808C13.528 42.576 13.044 43.212 12.396 43.716C11.756 44.22 10.956 44.548 9.996 44.7C9.772 44.732 9.532 44.756 9.276 44.772C9.028 44.788 8.824 44.796 8.664 44.796H4.188V51H1.68ZM4.188 42.42H8.568C8.728 42.42 8.904 42.412 9.096 42.396C9.296 42.38 9.484 42.352 9.66 42.312C10.172 42.192 10.584 41.972 10.896 41.652C11.208 41.324 11.432 40.948 11.568 40.524C11.704 40.1 11.772 39.676 11.772 39.252C11.772 38.828 11.704 38.408 11.568 37.992C11.432 37.568 11.208 37.196 10.896 36.876C10.584 36.548 10.172 36.324 9.66 36.204C9.484 36.156 9.296 36.124 9.096 36.108C8.904 36.092 8.728 36.084 8.568 36.084H4.188V42.42ZM14.3316 51L19.9476 33.72H23.5596L29.1756 51H26.5716L21.3996 35.232H22.0476L16.9356 51H14.3316ZM17.2476 47.1V44.748H26.2716V47.1H17.2476ZM31.3284 51V33.72H33.8724L42.3804 46.56V33.72H44.9244V51H42.3804L33.8724 38.148V51H31.3284ZM48.2738 51V33.72H59.3138V36.084H50.7818V40.932H57.8738V43.296H50.7818V48.636H59.3138V51H48.2738ZM62.4356 51V33.72H64.9436V48.636H72.7676V51H62.4356Z" fill="black"/>
</svg>
