<svg width="22" height="35" viewBox="0 0 22 35" fill="none" xmlns="http://www.w3.org/2000/svg">
<path d="M14.6667 16.5204C14.6667 18.1383 14.2804 19.6899 13.5928 20.8339C12.9051 21.9779 11.9725 22.6206 11 22.6206C10.0276 22.6206 9.09495 21.9779 8.40732 20.8339C7.71968 19.6899 7.33337 18.1383 7.33337 16.5204C7.33337 14.9026 7.71968 13.3509 8.40732 12.2069C9.09495 11.0629 10.0276 10.4202 11 10.4202C11.9725 10.4202 12.9051 11.0629 13.5928 12.2069C14.2804 13.3509 14.6667 14.9026 14.6667 16.5204ZM13.4445 16.5204C13.4445 15.4418 13.1869 14.4074 12.7285 13.6448C12.2701 12.8821 11.6483 12.4536 11 12.4536C10.3517 12.4536 9.72998 12.8821 9.27156 13.6448C8.81314 14.4074 8.5556 15.4418 8.5556 16.5204C8.5556 17.599 8.81314 18.6334 9.27156 19.3961C9.72998 20.1588 10.3517 20.5872 11 20.5872C11.6483 20.5872 12.2701 20.1588 12.7285 19.3961C13.1869 18.6334 13.4445 17.599 13.4445 16.5204Z" fill="#7E21F3"/>
<path d="M18.7781 26.1849C20.8411 23.3804 22 19.5775 22 15.6123C22 11.6471 20.8411 7.84416 18.7781 5.03962C17.7569 3.65116 16.5444 2.54972 15.2098 1.79824C13.8752 1.04676 12.4447 0.659973 11 0.659973C9.55534 0.659973 8.12483 1.04676 6.79023 1.79824C5.45563 2.54972 4.2431 3.65116 3.22191 5.03962C1.1589 7.84416 0 11.6471 0 15.6123C0 19.5775 1.1589 23.3804 3.22191 26.1849L5.61191 29.3853L8.82213 33.6233L9.03112 33.8753C10.2489 35.2161 12.0324 35.1306 13.1794 33.6233L17.0056 28.5633L18.7781 26.1849ZM4.3297 6.54481C5.20552 5.35428 6.24538 4.40987 7.38989 3.76553C8.5344 3.12118 9.76113 2.78954 11 2.78954C12.2389 2.78954 13.4656 3.12118 14.6101 3.76553C15.7546 4.40987 16.7945 5.35428 17.6703 6.54481C19.3905 8.88363 20.3795 12.0346 20.431 15.3404C20.4825 18.6461 19.5926 21.8512 17.9469 24.2869L17.6703 24.6797L15.5946 27.4638L12.0905 32.0925L11.9428 32.2633C11.6711 32.5415 11.3402 32.6919 11 32.6919C10.6598 32.6919 10.3289 32.5415 10.0572 32.2633L9.91107 32.0925L5.2285 25.8903L4.3297 24.6797L4.05314 24.289C2.40741 21.8533 1.51746 18.6482 1.56898 15.3425C1.62051 12.0368 2.60954 8.88576 4.3297 6.54695V6.54481Z" fill="#7E21F3"/>
</svg>
