<svg width="58" height="17" viewBox="0 0 58 17" fill="none" xmlns="http://www.w3.org/2000/svg">
<path d="M0.83875 12V0.48H2.53475L8.20675 9.04V0.48H9.90275V12H8.20675L2.53475 3.432V12H0.83875ZM15.8876 12.24C15.0236 12.24 14.2743 12.0453 13.6396 11.656C13.005 11.2667 12.5143 10.7307 12.1676 10.048C11.8263 9.36 11.6556 8.568 11.6556 7.672C11.6556 6.77067 11.8316 5.97867 12.1836 5.296C12.5356 4.608 13.029 4.07467 13.6636 3.696C14.2983 3.312 15.0396 3.12 15.8876 3.12C16.7516 3.12 17.501 3.31467 18.1356 3.704C18.7703 4.09333 19.261 4.62933 19.6076 5.312C19.9543 5.99467 20.1276 6.78133 20.1276 7.672C20.1276 8.57333 19.9516 9.368 19.5996 10.056C19.253 10.7387 18.7623 11.2747 18.1276 11.664C17.493 12.048 16.7463 12.24 15.8876 12.24ZM15.8876 10.664C16.7143 10.664 17.3303 10.3867 17.7356 9.832C18.1463 9.272 18.3516 8.552 18.3516 7.672C18.3516 6.77067 18.1436 6.05067 17.7276 5.512C17.317 4.968 16.7036 4.696 15.8876 4.696C15.3276 4.696 14.8663 4.824 14.5036 5.08C14.141 5.33067 13.8716 5.68 13.6956 6.128C13.5196 6.57067 13.4316 7.08533 13.4316 7.672C13.4316 8.57867 13.6396 9.304 14.0556 9.848C14.4716 10.392 15.0823 10.664 15.8876 10.664ZM27.9496 12V7.752C27.9496 7.416 27.9203 7.072 27.8616 6.72C27.8083 6.36267 27.7016 6.032 27.5416 5.728C27.387 5.424 27.1656 5.17867 26.8776 4.992C26.595 4.80533 26.2243 4.712 25.7656 4.712C25.467 4.712 25.1843 4.76267 24.9176 4.864C24.651 4.96 24.4163 5.11733 24.2136 5.336C24.0163 5.55467 23.859 5.84267 23.7416 6.2C23.6296 6.55733 23.5736 6.992 23.5736 7.504L22.5336 7.112C22.5336 6.328 22.6803 5.63733 22.9736 5.04C23.267 4.43733 23.6883 3.968 24.2376 3.632C24.787 3.296 25.451 3.128 26.2296 3.128C26.827 3.128 27.3283 3.224 27.7336 3.416C28.139 3.608 28.467 3.86133 28.7176 4.176C28.9736 4.48533 29.1683 4.824 29.3016 5.192C29.435 5.56 29.5256 5.92 29.5736 6.272C29.6216 6.624 29.6456 6.93333 29.6456 7.2V12H27.9496ZM21.8776 12V3.36H23.3736V5.856H23.5736V12H21.8776ZM34.4334 12L30.6894 0.48H32.4254L35.6174 10.312L38.8494 0.48H40.5854L36.8414 12H34.4334ZM44.6708 12.24C43.8121 12.24 43.0574 12.0533 42.4068 11.68C41.7614 11.3013 41.2574 10.776 40.8947 10.104C40.5374 9.42667 40.3588 8.64267 40.3588 7.752C40.3588 6.808 40.5348 5.98933 40.8868 5.296C41.2441 4.60267 41.7401 4.06667 42.3748 3.688C43.0094 3.30933 43.7481 3.12 44.5908 3.12C45.4708 3.12 46.2201 3.32533 46.8388 3.736C47.4574 4.14133 47.9188 4.72 48.2228 5.472C48.5321 6.224 48.6548 7.11733 48.5908 8.152H46.9188V7.544C46.9081 6.54133 46.7161 5.8 46.3428 5.32C45.9748 4.84 45.4121 4.6 44.6548 4.6C43.8174 4.6 43.1881 4.864 42.7668 5.392C42.3454 5.92 42.1348 6.68267 42.1348 7.68C42.1348 8.62933 42.3454 9.36533 42.7668 9.888C43.1881 10.4053 43.7961 10.664 44.5908 10.664C45.1134 10.664 45.5641 10.5467 45.9428 10.312C46.3268 10.072 46.6254 9.73067 46.8388 9.288L48.4788 9.808C48.1428 10.5813 47.6334 11.1813 46.9508 11.608C46.2681 12.0293 45.5081 12.24 44.6708 12.24ZM41.5908 8.152V6.848H47.7587V8.152H41.5908ZM53.9456 16.08C53.4816 16.08 53.031 16.008 52.5936 15.864C52.1616 15.72 51.767 15.5067 51.4096 15.224C51.0523 14.9467 50.7563 14.6027 50.5216 14.192L52.0656 13.408C52.2523 13.776 52.519 14.0453 52.8656 14.216C53.2123 14.3867 53.5776 14.472 53.9616 14.472C54.4363 14.472 54.8416 14.3867 55.1776 14.216C55.5136 14.0507 55.767 13.8 55.9376 13.464C56.1136 13.128 56.199 12.712 56.1936 12.216V9.8H56.3936V3.36H57.8736V12.232C57.8736 12.4613 57.8656 12.68 57.8496 12.888C57.8336 13.096 57.8043 13.304 57.7616 13.512C57.639 14.0933 57.4043 14.5733 57.0576 14.952C56.7163 15.3307 56.279 15.6133 55.7456 15.8C55.2176 15.9867 54.6176 16.08 53.9456 16.08ZM53.8176 12.24C53.0123 12.24 52.3163 12.04 51.7296 11.64C51.1483 11.24 50.6976 10.696 50.3776 10.008C50.063 9.31467 49.9056 8.536 49.9056 7.672C49.9056 6.80267 50.0656 6.02667 50.3856 5.344C50.7056 4.656 51.159 4.11467 51.7456 3.72C52.3376 3.32 53.039 3.12 53.8496 3.12C54.6656 3.12 55.351 3.32 55.9056 3.72C56.4656 4.11467 56.887 4.656 57.1696 5.344C57.4576 6.032 57.6016 6.808 57.6016 7.672C57.6016 8.536 57.4576 9.312 57.1696 10C56.8816 10.688 56.4576 11.2347 55.8976 11.64C55.3376 12.04 54.6443 12.24 53.8176 12.24ZM54.0496 10.728C54.599 10.728 55.047 10.5973 55.3936 10.336C55.7403 10.0747 55.9936 9.71467 56.1536 9.256C56.3136 8.79733 56.3936 8.26933 56.3936 7.672C56.3936 7.07467 56.311 6.54667 56.1456 6.088C55.9856 5.62933 55.735 5.272 55.3936 5.016C55.0576 4.76 54.6283 4.632 54.1056 4.632C53.551 4.632 53.095 4.768 52.7376 5.04C52.3803 5.312 52.1136 5.67733 51.9376 6.136C51.767 6.59467 51.6816 7.10667 51.6816 7.672C51.6816 8.24267 51.767 8.76 51.9376 9.224C52.1136 9.68267 52.375 10.048 52.7216 10.32C53.0736 10.592 53.5163 10.728 54.0496 10.728Z" fill="#B90505"/>
</svg>
