<svg width="180" height="27" viewBox="0 0 180 27" fill="none" xmlns="http://www.w3.org/2000/svg">
<path d="M0.45 26V0.799999H10.18C10.425 0.799999 10.6992 0.811666 11.0025 0.834999C11.3175 0.846666 11.6325 0.881666 11.9475 0.939999C13.2658 1.13833 14.38 1.59917 15.29 2.3225C16.2117 3.03417 16.9058 3.9325 17.3725 5.0175C17.8508 6.1025 18.09 7.30417 18.09 8.6225C18.09 10.5242 17.5883 12.175 16.585 13.575C15.5817 14.975 14.1467 15.8558 12.28 16.2175L11.3875 16.4275H3.0225V26H0.45ZM15.71 26L10.74 15.745L13.2075 14.8L18.6675 26H15.71ZM3.0225 13.9775H10.11C10.32 13.9775 10.565 13.9658 10.845 13.9425C11.125 13.9192 11.3992 13.8783 11.6675 13.82C12.5308 13.6333 13.2367 13.2775 13.785 12.7525C14.345 12.2275 14.7592 11.6033 15.0275 10.88C15.3075 10.1567 15.4475 9.40417 15.4475 8.6225C15.4475 7.84083 15.3075 7.08833 15.0275 6.365C14.7592 5.63 14.345 5 13.785 4.475C13.2367 3.95 12.5308 3.59417 11.6675 3.4075C11.3992 3.34917 11.125 3.31417 10.845 3.3025C10.565 3.27917 10.32 3.2675 10.11 3.2675H3.0225V13.9775ZM22.8801 3.5125V0.624999H25.4526V3.5125H22.8801ZM22.8801 26V7.1H25.4526V26H22.8801ZM37.7515 26.5075C35.5349 26.5075 33.709 26.0292 32.274 25.0725C30.8507 24.1158 29.9757 22.7858 29.649 21.0825L32.274 20.645C32.554 21.7183 33.1899 22.5758 34.1815 23.2175C35.1849 23.8475 36.4215 24.1625 37.8915 24.1625C39.3265 24.1625 40.4582 23.865 41.2865 23.27C42.1149 22.6633 42.529 21.8408 42.529 20.8025C42.529 20.2192 42.3949 19.7467 42.1265 19.385C41.8699 19.0117 41.339 18.6675 40.534 18.3525C39.729 18.0375 38.5274 17.6642 36.929 17.2325C35.214 16.7658 33.8724 16.2992 32.904 15.8325C31.9357 15.3658 31.2474 14.8292 30.839 14.2225C30.4307 13.6042 30.2265 12.8517 30.2265 11.965C30.2265 10.8917 30.5299 9.9525 31.1365 9.1475C31.7432 8.33083 32.5832 7.70083 33.6565 7.2575C34.7299 6.8025 35.9782 6.575 37.4015 6.575C38.8249 6.575 40.0965 6.80833 41.2165 7.275C42.3482 7.73 43.2582 8.37167 43.9465 9.2C44.6349 10.0283 45.0432 10.9908 45.1715 12.0875L42.5465 12.56C42.3715 11.4517 41.8174 10.5767 40.884 9.935C39.9624 9.28167 38.7899 8.94333 37.3665 8.92C36.0249 8.885 34.934 9.14167 34.094 9.69C33.254 10.2267 32.834 10.9442 32.834 11.8425C32.834 12.3442 32.9857 12.7758 33.289 13.1375C33.5924 13.4875 34.1407 13.82 34.934 14.135C35.739 14.45 36.8824 14.7942 38.364 15.1675C40.1024 15.6108 41.4674 16.0775 42.459 16.5675C43.4507 17.0575 44.1565 17.635 44.5765 18.3C44.9965 18.965 45.2065 19.7875 45.2065 20.7675C45.2065 22.5525 44.5415 23.9583 43.2115 24.985C41.8932 26 40.0732 26.5075 37.7515 26.5075ZM57.0852 26.525C55.2419 26.525 53.6435 26.1167 52.2902 25.3C50.9485 24.4833 49.9044 23.3342 49.1577 21.8525C48.411 20.3708 48.0377 18.6325 48.0377 16.6375C48.0377 14.5725 48.4052 12.7875 49.1402 11.2825C49.8752 9.7775 50.9077 8.61667 52.2377 7.8C53.5794 6.98333 55.1602 6.575 56.9802 6.575C58.8469 6.575 60.4394 7.00667 61.7577 7.87C63.076 8.72167 64.0735 9.94667 64.7502 11.545C65.4269 13.1433 65.736 15.0508 65.6777 17.2675H63.0527V16.3575C63.006 13.9075 62.4752 12.0583 61.4602 10.81C60.4569 9.56167 58.9869 8.9375 57.0502 8.9375C55.0202 8.9375 53.4627 9.59667 52.3777 10.915C51.3044 12.2333 50.7677 14.1117 50.7677 16.55C50.7677 18.93 51.3044 20.7792 52.3777 22.0975C53.4627 23.4042 54.9969 24.0575 56.9802 24.0575C58.3335 24.0575 59.5119 23.7483 60.5152 23.13C61.5302 22.5 62.3294 21.5958 62.9127 20.4175L65.3102 21.345C64.5635 22.99 63.461 24.2675 62.0027 25.1775C60.556 26.0758 58.9169 26.525 57.0852 26.525ZM49.8577 17.2675V15.115H64.2952V17.2675H49.8577ZM90.2182 26V16.3575C90.2182 15.3075 90.119 14.345 89.9207 13.47C89.7223 12.5833 89.4015 11.8133 88.9582 11.16C88.5265 10.495 87.9607 9.98167 87.2607 9.62C86.5723 9.25833 85.7323 9.0775 84.7407 9.0775C83.8307 9.0775 83.0257 9.235 82.3257 9.55C81.6373 9.865 81.054 10.32 80.5757 10.915C80.109 11.4983 79.7532 12.21 79.5082 13.05C79.2632 13.89 79.1407 14.8467 79.1407 15.92L77.3207 15.5175C77.3207 13.5808 77.659 11.9533 78.3357 10.635C79.0123 9.31667 79.9457 8.31917 81.1357 7.6425C82.3257 6.96583 83.6907 6.6275 85.2307 6.6275C86.3623 6.6275 87.3482 6.8025 88.1882 7.1525C89.0398 7.5025 89.7573 7.975 90.3407 8.57C90.9357 9.165 91.414 9.8475 91.7757 10.6175C92.1373 11.3758 92.3998 12.1867 92.5632 13.05C92.7265 13.9017 92.8082 14.7533 92.8082 15.605V26H90.2182ZM76.5507 26V7.1H78.8782V11.755H79.1407V26H76.5507ZM95.948 8.15L96.1055 6.8725C96.5722 6.9075 96.9105 6.81417 97.1205 6.5925C97.3305 6.37083 97.4589 6.07333 97.5055 5.7C97.5522 5.32667 97.5639 4.92417 97.5405 4.4925H95.948V0.799999H98.9405V5.1925C98.9405 6.26583 98.6664 7.07083 98.118 7.6075C97.5814 8.14417 96.858 8.325 95.948 8.15Z" fill="#6E17FC"/>
<path d="M110.714 26V0.799999H118.361C118.63 0.799999 119.085 0.805833 119.726 0.8175C120.38 0.829166 121.004 0.875832 121.599 0.957498C123.512 1.22583 125.11 1.9375 126.394 3.0925C127.677 4.2475 128.64 5.7175 129.281 7.5025C129.923 9.2875 130.244 11.2533 130.244 13.4C130.244 15.5467 129.923 17.5125 129.281 19.2975C128.64 21.0825 127.677 22.5525 126.394 23.7075C125.11 24.8625 123.512 25.5742 121.599 25.8425C121.015 25.9125 120.391 25.9592 119.726 25.9825C119.061 25.9942 118.606 26 118.361 26H110.714ZM113.374 23.5325H118.361C118.84 23.5325 119.353 23.5208 119.901 23.4975C120.461 23.4625 120.94 23.4042 121.336 23.3225C122.806 23.0658 123.99 22.4708 124.889 21.5375C125.799 20.6042 126.464 19.4375 126.884 18.0375C127.304 16.6258 127.514 15.08 127.514 13.4C127.514 11.7083 127.304 10.1567 126.884 8.745C126.464 7.33333 125.799 6.16667 124.889 5.245C123.979 4.32333 122.795 3.73417 121.336 3.4775C120.94 3.39583 120.455 3.34333 119.884 3.32C119.324 3.285 118.816 3.2675 118.361 3.2675H113.374V23.5325ZM134.579 3.5125V0.624999H137.152V3.5125H134.579ZM134.579 26V7.1H137.152V26H134.579ZM156.048 26V16.3575C156.048 15.3075 155.949 14.345 155.751 13.47C155.552 12.5833 155.232 11.8133 154.788 11.16C154.357 10.495 153.791 9.98167 153.091 9.62C152.402 9.25833 151.562 9.0775 150.571 9.0775C149.661 9.0775 148.856 9.235 148.156 9.55C147.467 9.865 146.884 10.32 146.406 10.915C145.939 11.4983 145.583 12.21 145.338 13.05C145.093 13.89 144.971 14.8467 144.971 15.92L143.151 15.5175C143.151 13.5808 143.489 11.9533 144.166 10.635C144.842 9.31667 145.776 8.31917 146.966 7.6425C148.156 6.96583 149.521 6.6275 151.061 6.6275C152.192 6.6275 153.178 6.8025 154.018 7.1525C154.87 7.5025 155.587 7.975 156.171 8.57C156.766 9.165 157.244 9.8475 157.606 10.6175C157.967 11.3758 158.23 12.1867 158.393 13.05C158.557 13.9017 158.638 14.7533 158.638 15.605V26H156.048ZM142.381 26V7.1H144.708V11.755H144.971V26H142.381ZM171.074 26.525C169.231 26.525 167.633 26.1167 166.279 25.3C164.938 24.4833 163.894 23.3342 163.147 21.8525C162.4 20.3708 162.027 18.6325 162.027 16.6375C162.027 14.5725 162.394 12.7875 163.129 11.2825C163.864 9.7775 164.897 8.61667 166.227 7.8C167.569 6.98333 169.149 6.575 170.969 6.575C172.836 6.575 174.429 7.00667 175.747 7.87C177.065 8.72167 178.063 9.94667 178.739 11.545C179.416 13.1433 179.725 15.0508 179.667 17.2675H177.042V16.3575C176.995 13.9075 176.464 12.0583 175.449 10.81C174.446 9.56167 172.976 8.9375 171.039 8.9375C169.009 8.9375 167.452 9.59667 166.367 10.915C165.294 12.2333 164.757 14.1117 164.757 16.55C164.757 18.93 165.294 20.7792 166.367 22.0975C167.452 23.4042 168.986 24.0575 170.969 24.0575C172.323 24.0575 173.501 23.7483 174.504 23.13C175.519 22.5 176.319 21.5958 176.902 20.4175L179.299 21.345C178.553 22.99 177.45 24.2675 175.992 25.1775C174.545 26.0758 172.906 26.525 171.074 26.525ZM163.847 17.2675V15.115H178.284V17.2675H163.847Z" fill="black"/>
</svg>
